# xmcd
#
# Track frame offsets: 
#        182
#        34682
#        59082
#        100720
#        134807
#        164482
#        198182
#        225057
#
# Disc length: 3354 seconds
#
# Revision: 1
# Processed by: cddbd v1.5.1PL0 Copyright (c) Steve Scherf et al.
# Submitted via: ExactAudioCopy v0.90b4
#
DISCID=660d1808
DTITLE=Al Foster - Brandyn
DYEAR=1997
DGENRE=Jazz
TTITLE0=The Chief
TTITLE1=Brandyn
TTITLE2=Monk Up And Down
TTITLE3=Barney Rose
TTITLE4=Amsterdam Blues
TTITLE5=Hope
TTITLE6=No Title
TTITLE7=Black Nile
EXTD=
EXTT0=
EXTT1=
EXTT2=
EXTT3=
EXTT4=
EXTT5=
EXTT6=
EXTT7=
PLAYORDER=
